<svg id="Capa_1" enable-background="new 0 0 512 512" height="512" viewBox="0 0 512 512" width="512" xmlns="http://www.w3.org/2000/svg"><g><g><path d="m502 286.139h-14.752v-172.988c0-18.382-14.955-33.337-33.337-33.337h-395.823c-18.382 0-33.337 14.955-33.337 33.337v172.987h-14.751c-5.523 0-10 4.478-10 10v46.56c0 5.522 4.477 10 10 10h16.231l11.93 44.148c4.816 20.818 23.065 35.339 44.455 35.339h50.617c21.39 0 39.639-14.52 44.455-35.339l4.274-15.816 4.274 15.815c4.814 20.819 23.064 35.34 44.456 35.34h50.617c21.39 0 39.639-14.521 44.455-35.339l4.274-15.817 4.274 15.816c4.816 20.818 23.066 35.34 44.455 35.34h50.616c21.39 0 39.639-14.521 44.455-35.34l11.93-44.147h16.232c5.522 0 10-4.478 10-10v-46.56c0-5.522-4.478-9.999-10-9.999zm-156.965 0c-3.47-9.513-5.286-19.857-5.286-30.269 0-22.179 7.773-49.574 20.286-71.495 12.979-22.739 28.821-35.781 43.464-35.781 14.642 0 30.484 13.042 43.464 35.781 12.513 21.921 20.285 49.316 20.285 71.495 0 10.414-1.816 20.759-5.285 30.269zm-300.284-172.988c0-7.354 5.983-13.337 13.337-13.337h395.823c7.354 0 13.337 5.983 13.337 13.337v66.471c-14.986-28.655-37.394-51.029-63.749-51.029-33.109 0-59.987 35.309-73.75 74.022-13.763-38.714-40.641-74.022-73.749-74.022-33.109 0-59.987 35.309-73.75 74.022-13.763-38.714-40.641-74.022-73.749-74.022-26.356 0-48.763 22.374-63.75 51.029v-66.471zm122.213 172.988h-116.926c-3.47-9.512-5.286-19.855-5.286-30.269 0-22.179 7.773-49.574 20.286-71.495 12.98-22.739 28.822-35.781 43.464-35.781s30.484 13.042 43.464 35.781c12.513 21.921 20.286 49.316 20.286 71.495-.002 10.413-1.817 20.757-5.288 30.269zm-8.633 105.677c-.036.132-.069.266-.099.399-2.663 11.758-12.942 19.97-24.998 19.97h-50.617c-12.056 0-22.335-8.212-24.998-19.97-.03-.134-.063-.268-.099-.399l-10.571-39.118h121.953zm148.075 0c-.036.133-.069.266-.1.399-2.663 11.758-12.942 19.97-24.998 19.97h-50.617c-12.056 0-22.335-8.212-24.998-19.969-.03-.135-.063-.268-.099-.4l-10.571-39.118h121.953zm148.074 0c-.036.132-.069.266-.1.399-2.663 11.758-12.942 19.97-24.998 19.97h-50.616c-12.056 0-22.335-8.212-24.998-19.97-.03-.134-.063-.268-.1-.399l-10.57-39.118h121.952zm37.52-59.118h-472v-26.56h190.794c5.523 0 10-4.478 10-10s-4.477-10-10-10h-13.257c-3.47-9.512-5.286-19.856-5.286-30.269 0-22.179 7.773-49.574 20.286-71.495 12.98-22.739 28.822-35.781 43.464-35.781s30.484 13.042 43.464 35.781c12.513 21.921 20.285 49.316 20.285 71.495 0 10.414-1.816 20.758-5.286 30.269h-13.257c-5.523 0-10 4.478-10 10s4.477 10 10 10h190.793z"/><path d="m265.42 292.31c-1.659-3.98-5.824-6.525-10.127-6.135-4.262.387-7.863 3.536-8.843 7.696-.923 3.92.683 8.139 3.986 10.448 3.358 2.348 7.88 2.393 11.294.132 3.934-2.607 5.472-7.791 3.69-12.141z"/></g></g></svg>