<?xml version="1.0"?>
<svg xmlns="http://www.w3.org/2000/svg" width="512" height="512" viewBox="0 0 128 128"><g><path d="M114.835,40.409c-1.067-5.208-4.452-8.79-10.325-10.93a21.91,21.91,0,0,0-1.836-5.563l2.567-2.553a6.79,6.79,0,0,0-5.7-11.554,6.729,6.729,0,0,0-1.545.4,6.8,6.8,0,0,0-13.325,0,6.793,6.793,0,0,0-7.247,11.152l2.866,2.85c-2.3,5-3.551,12.819-4.08,24.2a32.617,32.617,0,0,1-1.153,7.26,82.319,82.319,0,0,0-16.1-3.069C52.517,41.868,40.189,29.045,17.6,26.947a1.75,1.75,0,0,0-1.911,1.815c.288,6.994,2.183,11.186,4.12,13.668H14.88a1.751,1.751,0,0,0-1.691,2.2c.111.41,2.111,7.644,7.153,12.236H15.12a1.751,1.751,0,0,0-1.744,1.9,14.982,14.982,0,0,0,9.343,12.077c.613,5.769,4.923,30.247,33.555,34.167l1.467,9.234A7.763,7.763,0,0,0,52.71,121.5a1.75,1.75,0,0,0,1.75,1.75H86.79a1.75,1.75,0,0,0,1.75-1.75,7.759,7.759,0,0,0-7.75-7.75h-.515L78.9,105.083C93.149,103.9,104.99,99.9,107.43,87a33.738,33.738,0,0,0-.786-17.307A46.057,46.057,0,0,1,104.766,56c3.66-.408,6.446-2.522,7.3-5.711,1.061-3.983-2.1-6.221-4.647-8.019-.445-.315-.9-.635-1.328-.962a38.522,38.522,0,0,1,6.58,1.143,1.751,1.751,0,0,0,2.159-2.044ZM79.892,18.877A3.294,3.294,0,1,1,84.9,14.641l.12.18a1.75,1.75,0,0,0,3.2-1.132l-.17-1.848a3.3,3.3,0,1,1,6.565,0l-.17,1.85a1.75,1.75,0,0,0,3.2,1.125l.1-.148a3.294,3.294,0,1,1,5.028,4.212l-2.091,2.079c-.067-.075-.124-.161-.193-.234C98.156,18.253,94.919,17,90.87,17a10.261,10.261,0,0,0-8.737,4.106ZM57.952,72.37A22.516,22.516,0,0,1,45.484,65.1h9.375a1.75,1.75,0,0,0,.625-3.384,13.553,13.553,0,0,1-7.672-6.374c28.36,1.162,41.049,7.232,41.049,19.546a6.194,6.194,0,0,1-2.733,5.181c-7.566,5.693-26.961,3.831-30.867,2.7A12.5,12.5,0,0,1,47.4,75.836H57.609a1.75,1.75,0,0,0,.343-3.466Zm9.508,47.38H56.589a4.261,4.261,0,0,1,3.348-2.464,1.75,1.75,0,0,0,1.511-2.011l-1.57-9.891q1.245.09,2.549.127l1.625,10.262a1.75,1.75,0,0,0,1.728,1.477h2.01a4.18,4.18,0,0,1,2.016.509l.1.049a4.276,4.276,0,0,1,1.76,1.942Zm1.9-14.23,1.382,8.733c-.035.014-.068.033-.1.047a7.767,7.767,0,0,0-2.849-.55h-.515l-1.3-8.194Q67.673,105.549,69.36,105.52Zm7.692,10.253a1.75,1.75,0,0,0,1.728,1.477h2.01a4.256,4.256,0,0,1,3.873,2.5H75.325A7.747,7.747,0,0,0,73.94,116.8a1.678,1.678,0,0,0,.508-1.52l-1.559-9.848c.841-.03,1.678-.064,2.509-.108ZM103.99,86.345c-2.743,14.513-20.3,15.715-39.61,15.715-36.786,0-38.218-31.206-38.261-32.532a1.75,1.75,0,0,0-1.213-1.614,11.4,11.4,0,0,1-7.615-7.544H27.25a1.75,1.75,0,0,0,.357-3.463c-5.683-1.187-8.918-7.543-10.273-10.977H24.75a1.738,1.738,0,0,0,1.711-1.477,1.767,1.767,0,0,0-1.2-1.945c-.214-.071-4.959-1.757-5.937-11.85C37.693,32.992,48.439,43.04,54.557,52.214c-3.15-.23-6.314-.374-9.413-.464a1.7,1.7,0,0,0-1.467.721,1.752,1.752,0,0,0-.233,1.618A17.243,17.243,0,0,0,48.375,61.6H42.014a1.75,1.75,0,0,0-1.532,2.6,24.989,24.989,0,0,0,8.09,8.135H44.907a1.751,1.751,0,0,0-1.7,2.143c.085.371,2.2,9.115,11.092,11.662A58.827,58.827,0,0,0,67.9,87.508c7.317,0,15.586-1.069,20.33-4.638a9.606,9.606,0,0,0,4.13-7.978c0-9.158-5.686-14.688-14.006-18.043a35.941,35.941,0,0,0,1.353-8.268C80.912,22.668,85.883,20.5,90.87,20.5c3.091,0,5.406.86,7.078,2.628,4.809,5.087,4.105,17.571,3.425,29.643a50.37,50.37,0,0,0,1.886,17.8A30.411,30.411,0,0,1,103.99,86.345Zm4.7-36.96a4.431,4.431,0,0,1-3.794,3.068c.141-2.518.276-5.005.366-7.427.047.034.094.07.141.1C107.989,46.958,109.082,47.914,108.69,49.385ZM105.333,37.75c-.037-1.462-.115-2.877-.243-4.237a11.072,11.072,0,0,1,5.38,4.853A38.2,38.2,0,0,0,105.333,37.75Z"/><path d="M86.717,94.375a54.78,54.78,0,0,1-6.582,1.047,1.75,1.75,0,0,0,.179,3.491,1.621,1.621,0,0,0,.184-.01,58.285,58.285,0,0,0,7-1.117,1.75,1.75,0,0,0-.785-3.411Z"/><path d="M94.336,28.5a4.75,4.75,0,1,0,4.75,4.75A4.755,4.755,0,0,0,94.336,28.5Zm0,6a1.25,1.25,0,1,1,1.25-1.25A1.251,1.251,0,0,1,94.336,34.5Z"/></g></svg>
